
<svg xmlns="http://www.w3.org/2000/svg" xml:space="preserve" id="Layer_1" x="0" y="0" version="1.1" viewBox="0 0 1000 1000">
  <g id="logos__x2F__beeldmerk__x2F__color_00000113325869714520271100000012184710918888853921_">
    <g id="logos_beeldmerk_color_00000031896905651547413870000003990454541953266352_">
      <g id="Group_3_00000017496154948927970160000005397813539776122782_">
        <linearGradient id="Clip_2-2_00000062887249806284700720000005777720689865149839_" x1="2.5238" x2="2.5238" y1="1008.4055" y2="1001.5133" gradientTransform="matrix(118.052 0 0 -121.5878 202.5 122666.7969)" gradientUnits="userSpaceOnUse">
          <stop offset="0" stop-color="#ed8022"/>
          <stop offset=".43" stop-color="#57b587"/>
          <stop offset="1" stop-color="#44bbd3"/>
        </linearGradient>
        <path id="Clip_2-2_00000094593844945196110130000012737044913831762325_" fill="url(#Clip_2-2_00000062887249806284700720000005777720689865149839_)" d="M501.8 895h-2.6c-44.6-.4-83.3-22.2-118.3-66.6-17.2 5.3-35 8-52.9 8.2-152.9 0-234.4-111.8-234.4-192.6 0-79.9 54.5-116.4 105.2-116.4 51.4 0 82.1 68.3 117.6 147.4 21.1 46.9 42.8 95.4 70.7 133.9 37.4-14.6 71.7-36.1 101.2-63.4-46.9-46.1-84.9-100.4-112.3-160.2-27.9-60.6-42.6-121.8-42.6-177 .1-48.9 8.6-97.5 25-143.5 13.8-38.7 32.4-75.6 55.2-109.9 22.9-35.3 50.3-67.6 81.5-95.9 3.1-2.6 7.6-2.6 10.7 0 31.1 28.4 58.5 60.6 81.5 95.9 22.8 34.2 41.4 71.1 55.2 109.8 16.5 46.1 24.9 94.6 25.1 143.5 0 55.2-14.7 116.4-42.6 177-27.3 59.8-65.4 114.1-112.3 160.2 29.4 27.4 63.8 48.9 101.2 63.5 27.8-38.4 49.5-86.8 70.6-133.7l.1-.2c35.5-79.1 66.1-147.4 117.5-147.4 50.7 0 105.2 36.4 105.2 116.4 0 80.8-81.4 192.6-234.3 192.6-17.9-.1-35.7-2.9-52.9-8.2-35 44.4-73.7 66.2-118.3 66.6zm-1.3-139.4c-30 27.9-64.8 50.2-102.7 65.8 30.9 37.4 64.6 55.6 102.8 55.6s71.8-18.2 102.7-55.6c-38-15.6-72.8-37.9-102.8-65.8zm299-212.6c-40.6 0-70.6 66.8-102.3 137.4v.1c-20.6 45.8-41.8 93.2-69.1 132.3 13.8 3.8 28 5.7 42.3 5.8 142 0 217.7-102.2 217.7-175.9-.1-68.5-45.9-99.7-88.6-99.7zm-600.7 0c-42.6 0-88.5 31.2-88.5 99.7 0 73.7 75.6 175.9 217.7 175.9 14.3-.1 28.5-2 42.3-5.8-27.2-38.9-48.5-86.2-69-132l-.1-.3C269.4 609.9 239.4 543 198.8 543zM500.4 75.3c-33.2 31.7-62 67.8-85.5 107.3-18.9 31.3-34.1 64.7-45.3 99.5-12.9 40.4-19.6 82.5-19.6 124.8 0 53.3 14.3 112.3 41.4 170.9 26.6 57.8 63.5 110.3 109.1 154.9 45.5-44.5 82.5-97 109-154.9 27.1-58.6 41.4-117.7 41.4-170.9-.1-42.4-6.7-84.5-19.6-124.9-11.2-34.8-26.4-68.2-45.3-99.5-23.6-39.4-52.4-75.5-85.6-107.2z"/>
      </g>
    </g>
  </g>
</svg>
